<svg fill="none" height="100" viewBox="0 0 100 100" width="100" xmlns="http://www.w3.org/2000/svg">
    <defs>
        <clipPath id="roundedClip">
            <rect width="100" height="100" rx="22" ry="22"/>
        </clipPath>
    </defs>
    <g clip-path="url(#roundedClip)">
        <rect width="100" height="100" rx="22" ry="22" fill="#000000"/>
        <circle cx="50" cy="50" r="16" stroke="#D4AF37" stroke-width="2.5"/>
        <circle cx="50" cy="50" r="12" stroke="#D4AF37" stroke-dasharray="2 2" stroke-width="1.5"/>
        <g stroke="#D4AF37" stroke-linecap="round" stroke-width="2.5">
            <path d="M50 20V12"/>
            <path d="M50 88V80"/>
            <path d="M20 50H12"/>
            <path d="M88 50H80"/>
            <path d="M28.8 28.8L23.1 23.1"/>
            <path d="M76.9 76.9L71.2 71.2"/>
            <path d="M28.8 71.2L23.1 76.9"/>
            <path d="M76.9 23.1L71.2 28.8"/>
            <path d="M40 25C43 23 47 22 50 22C53 22 57 23 60 25" stroke-width="1.5"/>
            <path d="M75 40C77 43 78 47 78 50C78 53 77 57 75 60" stroke-width="1.5"/>
            <path d="M60 75C57 77 53 78 50 78C47 78 43 77 40 75" stroke-width="1.5"/>
            <path d="M25 60C23 57 22 53 22 50C22 47 23 43 25 40" stroke-width="1.5"/>
        </g>
    </g>
</svg>
